<?xml version="1.0" encoding="UTF-8"?>
<svg width="986px" height="646px" viewBox="0 0 986 646" version="1.1" xmlns="http://www.w3.org/2000/svg" xmlns:xlink="http://www.w3.org/1999/xlink">
    <!-- Generator: Sketch 42 (36781) - http://www.bohemiancoding.com/sketch -->
    <title>menu-logo</title>
    <desc>Created with Sketch.</desc>
    <defs></defs>
    <g id="Page-1" stroke="none" stroke-width="1" fill="none" fill-rule="evenodd">
        <g id="pin-up-curls-logo" transform="translate(0.000000, -28.000000)" fill-rule="nonzero" fill="#EDFFFF">
            <g id="pin_up_curls" transform="translate(0.000000, 28.000000)">
                <path d="M923.5,542.1 C923.6,545.5 923.5,548.9 923,552.3 C920.9,577.9 897.2,601.5 875.6,614.8 C828.3,644 767.5,643.9 713.8,641.7 C615,637.7 522.4,599.2 428.9,570.9 C391.3,559.5 353.3,548.7 315.2,538.6 C333.9,518.4 350,495.7 363.1,474.4 C386.2,437.1 400.7,395.6 412,353.2 C412,355.6 413.7,358.1 416.6,360.1 C433.1,371.9 452.1,354.5 461.4,341.6 C471.8,327.4 480.3,298.3 461.9,286 C446.6,275.8 432.3,291.9 423.2,307.5 C425.1,299.1 427,290.6 428.9,282.2 C429.1,281.2 428.4,280.4 427.6,280.2 C427.2,280.1 426.7,280.1 426.4,280.3 C426.1,280.1 425.7,280 425.2,280.1 C413.2,283.1 409.7,314.2 407.3,323.6 C406.3,327.3 405.3,331.1 404.4,334.8 C398.8,344.3 392.6,353.2 386,361.1 C380.7,367.4 374.3,372.6 366.6,375.7 C366.4,375.6 366.1,375.6 365.9,375.7 C338.9,380.3 372.6,286.2 375.9,276.4 C376.2,275.4 375.3,274.3 374.3,274.3 L365.9,274.3 C365.1,274.3 364.6,274.8 364.4,275.5 C364,275.7 363.7,276 363.6,276.4 C362.2,281.4 356.2,298.2 351.3,317 C345,330.6 336.6,343.4 326.7,354 C320.9,360.2 315.2,361.2 311.2,358.9 C306.2,345.3 316.5,328 322.2,316.2 C327.4,305.4 332.1,294.8 334.3,282.9 C334.5,281.7 333.6,280.6 332.3,280.9 C330.7,281.3 329.2,281.6 327.6,282 C326.6,282.2 326.3,283 326.5,283.8 C305,332.1 264.6,372.5 216.6,398.3 C183.7,378.2 143.3,373.9 105.4,367.9 C85.7,364.8 5.6,364.3 1.1,396.3 C-2.6,422.2 69.5,429.4 82.8,430.6 C131.6,435.1 174.7,424.5 215.8,401.4 C216.8,402 217.9,402.6 218.9,403.3 C239.1,416.7 276.3,451.3 259.3,476 C257.8,480 255.3,483.8 252.7,487 L252.7,487 C284,464.7 256.3,431.6 235.6,412.5 C230.3,407.6 224.7,403.4 218.8,399.7 C224.3,396.5 229.9,393.1 235.3,389.4 C256.7,375.2 276.1,358 293.5,339.2 C298.7,333.6 303.4,327.7 308,321.6 C301.5,336.8 297.4,352.9 305.7,362.2 C318.7,376.6 337.1,349.6 348.6,328.3 C342.7,354.7 341,380.9 358.5,380.5 C378.6,380 392,360.3 401.7,344.8 C394.3,373.4 386.8,401.8 374.5,428.9 C357.9,465.3 335,504.2 306.1,536.2 C293.4,532.9 280.6,529.6 267.9,526.5 C227.6,516.6 180.9,507.1 140.8,522.8 C139.6,523.3 138.5,523.8 137.3,524.3 C137.1,524.3 136.8,524.3 136.5,524.5 C134.2,525.6 132.1,526.8 130.1,528.2 C117.1,536.3 108.3,548.5 109.1,561.3 C109.1,562.1 109.1,562.9 109.2,563.6 C109.3,564.3 109.5,565 109.8,565.7 C111.2,571.6 114.7,577.7 120.9,583.4 C149.3,609.9 202.5,605.2 238,592.9 C238.3,592.9 238.6,592.9 238.9,592.8 C239.2,592.6 239.6,592.4 239.9,592.3 C242.1,591.5 244.2,590.7 246.3,589.8 C270.8,579.6 293,562 312.4,541.5 C328.2,546 344,550.7 359.8,554.8 C416.1,569.6 471.5,587.7 526.9,605.6 C617.2,634.7 708.9,654.5 804.3,642.1 C849.4,636.2 954.3,590 921.5,528.2 C922.8,533 923.5,537.6 923.5,542.1 Z M440,357.5 C434.7,360.6 428.6,361.8 422.7,360 C417.2,358.4 413.5,352.7 419.3,348.9 C427.1,343.7 436.6,351 442.1,356.1 C441.4,356.5 440.7,357 440,357.5 Z M420.4,319.8 C426.5,306.4 436,291 449.8,286.6 C466.8,290 464.7,307.9 462.2,321.1 C459.7,334.4 454.2,344.4 444.5,353.8 C436.5,346.5 426.2,340.4 416,347.2 C414.5,348.2 413.4,349.3 412.8,350.4 C415.4,340.2 418,330 420.4,319.8 Z M31.8,417.3 C18.7,412.5 -8.3,398.1 16.7,383.3 C28.2,376.5 42.9,374.6 55.9,373.1 C89.3,369.3 119.6,373.9 152.4,379.7 C174.1,383.5 194.6,389.1 213.5,400.2 C157.2,429.6 90.7,438.9 31.8,417.3 Z M113.6,550.6 C113.5,550.6 113.5,550.5 113.4,550.5 L113.3,550.5 C113.6,549.9 113.9,549.3 114.3,548.7 C114,549.3 113.8,550 113.6,550.6 Z M244.7,586.1 C218.5,597.6 189.7,601.3 159,595.7 C149.2,593.9 139.4,591 131,586 C122,579.3 116.2,572 115.6,559.3 C115.2,549.4 119.8,541.2 126.6,535.1 C129.1,533.2 131.5,531.4 133.9,530 C155.3,516.5 183.8,517.2 208,519.2 C240.4,521.9 272.2,530 303.7,538.9 C286.2,558 266.5,574.3 244.7,586.1 Z M107.9,326.8 C112.7,330.3 117.9,333.2 123.3,335.6 C125.8,336.9 128.3,338.1 131,339.1 C131.6,339.3 132,339.2 132.3,338.9 C134.1,339.5 135.9,340 137.7,340.5 C141.4,341.4 145.2,341.9 148.9,342.1 C149.2,342.1 149.5,342.2 149.7,342.2 C150,342.2 150.3,342.3 150.6,342.3 C213.4,348.4 258.9,296.1 282.4,243.3 C283.8,240.2 285.1,237 286.4,233.8 C290.3,226.5 294,219 297.1,211.1 C306.6,187.3 314,163.1 319,137.9 C319.6,134.7 320.2,131.3 320.9,127.7 C336.8,114.3 349.8,97.3 351.7,76.4 C352.6,66.4 350,60.1 345.4,58.9 C345.1,58.6 344.6,58.4 344,58.7 L343.9,58.7 C340.4,58.6 335.9,61.1 331.1,66.6 C314.1,86.1 305.7,113.1 299.1,139.4 C297.6,140.3 296.1,141.2 294.6,142.1 C264.1,154.7 235,136.7 225.5,106.4 C212.5,65.1 245.3,23.7 281.5,8.9 C311.6,-3.4 342.8,0.8 368.9,15.2 C368.9,15.6 369.2,16.1 369.6,16.4 C404,40.4 423.9,74.5 423.4,116.8 C423.2,128.9 421,141.6 417.1,154.1 C388.9,154 360.8,158.4 335.5,171 C335.4,171.1 335.3,171.1 335.2,171.2 C334.9,171.2 334.7,171.3 334.5,171.5 C334.4,171.6 334.3,171.6 334.2,171.7 C314.1,182.3 300.7,202.4 316.4,222.8 C331.7,242.7 369.5,226.2 384.6,216.1 C404.8,202.5 419.2,181 427.3,157.5 C437.5,158 447.6,159 457.5,160.4 C454.5,172.2 436.6,241.2 454.5,241.1 C457,241.7 460.2,241 464.5,238.6 C485.2,226.6 497.9,196.8 511,178 C510.6,178.5 526.2,156 527,172.2 C527.4,180.6 524.7,189.5 522.8,197.6 C519.6,211.8 515.6,225.7 513.8,240.2 C513.8,240.5 513.8,240.7 513.9,240.9 C513.9,241.3 513.8,241.6 513.8,242 C513.8,242.4 513.9,242.7 514.2,243 C514.1,243.6 514.3,244.2 515,244.5 C518.2,246 520.9,245.7 522.9,244.1 C522.9,244.1 523,244.1 523,244 C524.4,242.9 525.6,241.1 526.4,238.9 C533,220.6 533.5,199.8 537.7,180.8 C540.4,175.2 544.5,168.7 549.5,163.9 C553.6,160.3 558.6,157.7 564.6,157.2 C566.5,157 568.1,157.2 569.6,157.5 C570.9,157.9 572.1,158.4 573.4,159.2 C581.7,165.4 577.5,183.6 575.6,191.9 C568.3,222.7 547,261.8 561,293.6 C601.9,386.5 731.5,325.9 739.3,243 C739.9,236.4 739.7,228.6 738.6,220.6 C741.8,219.8 744.8,218.9 747.4,218.2 C782.7,209 816.4,194.1 853,189.4 C888,184.9 919.2,196 932.8,230.3 C936.2,238.9 937.7,247.6 937.4,255.9 C937.5,256.1 937.7,256.4 937.7,256.7 C938.8,269.5 934,281.5 926.4,291.9 C953,263.5 938.6,206.1 898.2,189.4 C863.5,175 815.5,192.7 782.7,203.6 C768.1,208.5 753.2,213.5 738,217.2 C733.7,192.6 720.1,167.5 691.9,171.6 C671.1,174.6 658.3,204.4 675.6,219.4 C689.9,231.7 716.8,226.1 736.4,221 C737.2,230.6 736.4,240.3 735.1,248.5 C725.4,309.1 656.5,354.9 599.7,328.7 C599.5,328.4 599.3,328.2 599,328.1 C597.2,327.4 595.6,326.6 594,325.8 C593.2,325.4 592.5,325 591.7,324.5 C587.2,321.8 583.4,318.9 580,315.9 C548.2,284 583.4,223.8 587.1,184.6 C588.4,170.9 582.4,157.4 568.7,153.6 C561.6,151.6 555.1,154.2 549.7,158.8 C544.4,162.6 540.1,168.6 536.6,174.9 C536,168.9 533.3,164 526.5,162.9 C525.8,162.5 525.1,162.3 524.2,162.2 C517,161.8 511.8,171.3 508.2,176.2 C496.3,192.5 486.6,210.2 473.6,225.7 C469.6,230.5 461.4,238 455.8,237.3 C453.7,232.9 453,228 453.2,222.8 C453.4,219.8 453.8,216.8 454.2,213.8 C456.8,199.5 463.7,184.1 466.5,172.5 C467.4,168.6 469.8,159.1 464.4,158.3 C464.2,158.1 464,158 463.6,157.9 C452.1,156.2 440.2,154.9 428.4,154.4 C433.5,138.2 435.7,121.2 434.6,105.1 C429,21.7 328.3,-27.6 259.1,17 C227.4,37.5 211.6,81.5 225.9,116.6 C237.2,144.4 269,156.3 295.9,145.1 C295.9,145.1 296,145.1 296,145 C296.1,145 296.2,145 296.3,144.9 C296.9,144.5 297.5,144.2 298.1,143.8 C295.7,153.8 293.4,163.6 291,172.8 C285.5,193.7 279.1,214.9 270.8,235.3 C269.9,237.3 269,239.4 268.2,241.4 C257.6,265.8 244,288.6 225.2,307.5 C198.4,334.6 156.9,346.4 122.7,331.5 C119.1,329.5 115.9,327.3 113,324.8 C115.7,323.7 118.3,322.5 121,321.1 C152.6,303.7 172.6,259.7 169.7,224.5 C167.9,202.7 146.8,182.2 124.1,186.7 C89.6,193.5 74.6,234.5 75.2,265.9 C75.7,289.2 87,309.8 104,323.7 C88.8,327.6 72.7,325.8 57.8,317.8 C56.4,317.4 55,316.8 54.4,316.4 C48.8,313.3 42.8,310.2 37.7,306.1 C37.3,305.8 36.8,305.6 36.4,305.3 C56,326.3 81.5,335.4 107.9,326.8 Z M345.1,62.5 C345.4,62.2 345.5,61.9 345.6,61.6 C346.2,61.9 346.8,62.3 347.4,63 C351.2,68.1 348.4,78.4 347.1,83.6 C343.2,99.4 333.7,112.2 322,122.7 C325.6,101.3 330.5,75.8 345.1,62.5 Z M383.3,212.9 C383.1,213.1 383,213.4 382.9,213.7 C367,225 346.1,231.9 328,225.5 C306.6,212.5 320.1,187.3 336.5,174.3 C341.2,171.9 346,169.9 350.5,168.2 C371.2,160.1 393.7,157.2 416.3,157.4 C409.3,178.3 397.6,198.3 383.3,212.9 Z M698.8,222.6 C674.6,222.6 661.9,201.2 679.2,180.7 C691.1,166.6 713.8,179.2 723.5,188.5 C731.2,195.9 734.8,206.6 736.2,217.8 C723.9,220.7 711.4,222.6 698.8,222.6 Z M97.6,313.9 C97.7,313.9 97.8,313.8 97.8,313.8 C98,314.1 98.1,314.4 98.2,314.6 C98.1,314.4 97.8,314.2 97.6,313.9 Z M89.3,263.9 C87.3,234.3 96.9,201.1 127,189.9 C127.3,189.8 127.5,189.7 127.6,189.5 C142,188.7 155.3,198.2 162.2,210.9 C173.7,232 162.5,262.4 152.7,281.9 C142.5,302.2 127,315.8 109.7,322 C95.4,307.4 90.9,286.8 89.3,263.9 Z M467.3,117.8 C468.1,119.6 469.5,121.1 471.3,121 C471.8,121 472.3,120.9 472.7,120.7 C473,120.6 473.2,120.5 473.5,120.3 L473.5,120.3 C475.1,120.3 476.5,119.6 477.6,118.2 C477.6,118.2 477.7,118.2 477.7,118.1 C480.3,116.1 480.4,112.8 479.6,109.9 C478.9,107.3 477.3,104.3 474.3,104.8 C471.5,103.7 468,104.3 466,106.6 C463.3,109.6 464.4,114.7 466.8,117.5 C467.1,117.6 467.2,117.6 467.3,117.8 Z M954,426.6 C915.1,411.9 867.1,431.8 838.5,458.4 C836.8,460 835.1,461.7 833.4,463.5 C825.9,451.7 818.7,440 814,428.4 C812.8,425 811.6,421.6 810.6,418.1 C816.5,409.3 821.9,400.2 826.4,391.1 C829.5,384.8 834.1,375.7 831.1,368.6 C822.9,349.6 801.7,386.6 799.7,391.8 C795.5,402.5 796.8,413.3 800.9,423.7 C782,447.2 749.2,483 729.9,485.4 C729.3,485.4 728.8,485.3 728.3,485.2 C723,481 721.4,471.6 721.4,461.7 C722.3,451.7 724.8,440.5 727,432.1 C742.3,407.9 754.4,381.3 765.2,355.6 C777.8,325.7 790.5,295.6 799.9,264.6 C800.7,262.1 806.8,239.8 796.9,247.9 C787.5,255.6 781.4,268.7 775.5,279 C764.8,298 755.5,317.9 746.6,337.8 C732.4,369.4 719.9,400.9 713.8,435.1 C713.2,438.5 712.4,442.7 711.8,447.2 C703.3,458.7 694.1,469.6 683.8,479.3 C677.4,485.3 667.8,492.6 659.6,490.8 C646.8,482.5 649.9,463.7 652.2,450.5 C654.8,435.4 664.5,420.6 672.5,407.9 C672.9,407.3 672,407 671.6,407.1 C668.5,407.5 665.7,408.4 662.7,409.1 C662.6,409.1 662.6,409.2 662.5,409.2 C653.6,411 643.7,409.3 634.9,407.7 C634.5,399.1 631.7,391.5 624.8,386.4 C622.4,384.6 616.5,382.2 612,382.4 C611.4,382.1 610.7,382.1 610.1,382.6 C610,382.7 610,382.7 610,382.8 C607.5,383.6 606,385.7 606.5,390 C608.3,404.4 617.8,407.3 630.4,410.2 C632.1,413.5 630.5,418.1 628.9,426 C625.8,441.5 617.1,458.3 610.4,472.3 C606.1,481.2 601.2,489.7 594.9,497.4 C590.9,502.2 587.4,503.9 584.3,503.6 C573.9,497.8 576.2,473.8 576.7,465 C577.6,449.7 582.4,434.6 586.8,420 C587.1,418.9 586.3,418 585.2,417.9 C584.1,417.8 583,417.8 581.9,417.7 C580.7,417.6 580.2,418.7 580.4,419.7 L580.3,419.8 C574.1,434.2 568,448.6 560.7,462.6 C556,471.5 550.4,479.8 543.3,487 C538.5,491.8 535,493.1 532.3,492.3 C532.2,492.2 532.1,492 532,491.9 C531.2,490.1 530.5,488.2 530,486.4 C528.6,476.9 532.5,462.5 533.7,457 C535.3,449.2 538.6,442.1 542.1,435 C543.8,432.4 545.2,429.7 546.2,426.9 C546.8,425.8 547.3,424.6 547.9,423.5 C548.4,422.5 548,421.5 546.9,421.1 C546.1,420.8 545.2,420.5 544.4,420.2 C543.3,419.8 542.6,420.6 542.5,421.5 C542.3,421.6 542,421.8 541.9,422.1 C541,423.7 539.9,425.6 538.8,427.6 C538.7,427.8 538.6,428 538.5,428.2 C535.1,434.4 531,442.3 527.6,450.7 C523.8,456.1 519.6,461.1 515.2,466 C500.8,482.3 478.8,501.6 455.5,508.5 L455.2,508.5 C438.8,511.9 422.8,503.1 418,486.8 C411.8,465.8 422.5,441.1 436.1,425.2 C436.2,425.1 436.3,424.9 436.3,424.8 C438.7,422.8 441.2,421 443.9,419.4 C453.1,413.3 482.6,402.7 480.9,431.8 C480.8,433.9 484,433.9 484.2,431.8 C486.1,398.7 452.4,410.2 434.7,422.5 C434.4,422.6 434.1,422.7 433.9,423 C433.8,423.1 433.8,423.2 433.7,423.3 C432.1,424.5 430.6,425.7 429.3,426.8 C407.8,446.1 394.3,481.8 415.7,505.8 C425.6,516.9 440.3,516.5 454.3,512.1 C455,512 455.6,511.9 456.2,511.8 C456.7,511.7 457,511.4 457.2,511.1 C467.5,507.5 477.2,501.9 484.2,497.4 C498.4,488.3 512.4,476.2 523.7,462.2 C519.9,474.9 519.1,487.2 525.9,494.6 C540.7,510.6 564.1,464.7 573.8,443.7 C572.5,449.6 571.4,455.5 570.4,461.4 C568.2,474.7 566.1,491.5 574.1,503.3 C588.9,525.2 611.5,478 615.3,470.1 C621.7,456.8 634.5,431.8 635.1,411.4 C642.1,412.7 649.3,413.3 656.3,413.5 L657.7,413.5 C647,433.2 627.2,483.9 657.3,493.6 C657.5,493.7 657.8,493.7 658,493.7 C664.7,495.8 673.1,493.2 681.1,486.6 C692.3,477.4 702.2,467 711.2,455.6 C710.1,468.6 711.3,482.5 721.1,488.9 C732.8,496.5 750.4,482.3 758.9,475.6 C775.2,462.8 790.4,446.6 803.5,429.1 C810.3,443.2 821.8,456.3 831.1,466.9 C806.9,493.8 786.3,538.6 805.6,571.5 C811.1,580.9 825.6,586.2 835.9,583.1 C854.2,577.7 863.5,561.4 868.7,543.9 C877.3,515 856.1,489.1 836,466.6 C843,459.3 850.7,452.6 858.9,447 C876.4,434.9 897.7,428.8 918.7,426.6 C930.5,425.4 942.3,427 953.6,430.3 C970.9,435.3 995.5,456.6 977.9,471.7 C975.9,474.8 973.4,477.7 970.6,480 C1001.8,464.5 979.4,436.2 954,426.6 Z M755.2,350.9 C756.8,346.7 769.3,312.8 780.8,286.2 C786.6,275 792.8,264.1 799.4,253.5 L799.6,253.5 L799.7,253.5 C798.3,271.1 787.6,291.1 781.5,307 C767,344.7 752.9,384.6 731.1,418.9 C731.1,419 731,419 731,419.1 C738.4,396.2 746.6,373.5 755.2,350.9 Z M664.3,418.4 C664.4,418.4 664.4,418.3 664.4,418.3 C664.3,418.5 664.2,418.8 664,419 C664.2,418.8 664.2,418.6 664.3,418.4 Z M631.2,405 C631.2,405.2 630.9,405.4 630.5,405.5 L630.5,405.5 L630.5,405.5 C630.4,405.5 630.4,405.5 630.3,405.6 L630.3,405.7 L630,405.7 L629.3,405.7 C628.5,405.6 627.6,405.5 626.8,405.3 C621.8,403.3 617.5,400.4 614.2,396 C612.6,393.8 610,389.1 611.3,386.1 C611.8,385.5 612.4,385.1 613.3,384.7 C616.1,384.9 619.6,386.4 621.2,387.4 C626.5,390.7 628.3,394.5 630.4,400.2 C630.5,400.5 630.5,400.8 630.5,401.1 C631.1,402.2 631.4,403.5 631.2,405 Z M649.9,481.6 L649.9,481.6 C649.9,481.6 650,481.7 650,481.8 C649.9,481.7 649.9,481.6 649.9,481.6 Z M821,370.8 C825.9,368.7 829.9,369.4 828.3,377.1 C826.2,387.1 820.1,396.5 814.8,405.1 C813.8,406.7 811.9,409.4 809.4,412.8 C806.7,398.6 809.3,384.6 821,370.8 Z M837.2,473.6 C858.7,507 877.5,540.7 843.9,574.6 C843.6,574.9 843.5,575.2 843.5,575.5 C834,581.6 822.6,582.2 811,572.5 C790.4,555.3 805.1,514.6 814.5,495.9 C819.4,486.2 825.8,477.1 833.1,468.9 C833.5,469.3 833.9,469.8 834.2,470.2 C835.1,471.3 836.1,472.5 837.2,473.6 Z" id="menu-logo"></path>
            </g>
        </g>
    </g>
</svg>