<svg width="986" height="646" viewBox="0 0 986 646" xmlns="http://www.w3.org/2000/svg"><title>menu-logo</title><path d="M923.5 542.1c.1 3.4 0 6.8-.5 10.2-2.1 25.6-25.8 49.2-47.4 62.5-47.3 29.2-108.1 29.1-161.8 26.9-98.8-4-191.4-42.5-284.9-70.8-37.6-11.4-75.6-22.2-113.7-32.3 18.7-20.2 34.8-42.9 47.9-64.2 23.1-37.3 37.6-78.8 48.9-121.2 0 2.4 1.7 4.9 4.6 6.9 16.5 11.8 35.5-5.6 44.8-18.5 10.4-14.2 18.9-43.3.5-55.6-15.3-10.2-29.6 5.9-38.7 21.5 1.9-8.4 3.8-16.9 5.7-25.3.2-1-.5-1.8-1.3-2-.4-.1-.9-.1-1.2.1-.3-.2-.7-.3-1.2-.2-12 3-15.5 34.1-17.9 43.5-1 3.7-2 7.5-2.9 11.2-5.6 9.5-11.8 18.4-18.4 26.3-5.3 6.3-11.7 11.5-19.4 14.6-.2-.1-.5-.1-.7 0-27 4.6 6.7-89.5 10-99.3.3-1-.6-2.1-1.6-2.1h-8.4c-.8 0-1.3.5-1.5 1.2-.4.2-.7.5-.8.9-1.4 5-7.4 21.8-12.3 40.6-6.3 13.6-14.7 26.4-24.6 37-5.8 6.2-11.5 7.2-15.5 4.9-5-13.6 5.3-30.9 11-42.7 5.2-10.8 9.9-21.4 12.1-33.3.2-1.2-.7-2.3-2-2-1.6.4-3.1.7-4.7 1.1-1 .2-1.3 1-1.1 1.8-21.5 48.3-61.9 88.7-109.9 114.5-32.9-20.1-73.3-24.4-111.2-30.4-19.7-3.1-99.8-3.6-104.3 28.4-3.7 25.9 68.4 33.1 81.7 34.3 48.8 4.5 91.9-6.1 133-29.2 1 .6 2.1 1.2 3.1 1.9 20.2 13.4 57.4 48 40.4 72.7-1.5 4-4 7.8-6.6 11 31.3-22.3 3.6-55.4-17.1-74.5-5.3-4.9-10.9-9.1-16.8-12.8 5.5-3.2 11.1-6.6 16.5-10.3 21.4-14.2 40.8-31.4 58.2-50.2 5.2-5.6 9.9-11.5 14.5-17.6-6.5 15.2-10.6 31.3-2.3 40.6 13 14.4 31.4-12.6 42.9-33.9-5.9 26.4-7.6 52.6 9.9 52.2 20.1-.5 33.5-20.2 43.2-35.7-7.4 28.6-14.9 57-27.2 84.1-16.6 36.4-39.5 75.3-68.4 107.3-12.7-3.3-25.5-6.6-38.2-9.7-40.3-9.9-87-19.4-127.1-3.7-1.2.5-2.3 1-3.5 1.5-.2 0-.5 0-.8.2-2.3 1.1-4.4 2.3-6.4 3.7-13 8.1-21.8 20.3-21 33.1 0 .8 0 1.6.1 2.3.1.7.3 1.4.6 2.1 1.4 5.9 4.9 12 11.1 17.7 28.4 26.5 81.6 21.8 117.1 9.5.3 0 .6 0 .9-.1.3-.2.7-.4 1-.5 2.2-.8 4.3-1.6 6.4-2.5 24.5-10.2 46.7-27.8 66.1-48.3 15.8 4.5 31.6 9.2 47.4 13.3 56.3 14.8 111.7 32.9 167.1 50.8 90.3 29.1 182 48.9 277.4 36.5 45.1-5.9 150-52.1 117.2-113.9 1.3 4.8 2 9.4 2 13.9zM440 357.5c-5.3 3.1-11.4 4.3-17.3 2.5-5.5-1.6-9.2-7.3-3.4-11.1 7.8-5.2 17.3 2.1 22.8 7.2-.7.4-1.4.9-2.1 1.4zm-19.6-37.7c6.1-13.4 15.6-28.8 29.4-33.2 17 3.4 14.9 21.3 12.4 34.5-2.5 13.3-8 23.3-17.7 32.7-8-7.3-18.3-13.4-28.5-6.6-1.5 1-2.6 2.1-3.2 3.2 2.6-10.2 5.2-20.4 7.6-30.6zM31.8 417.3c-13.1-4.8-40.1-19.2-15.1-34 11.5-6.8 26.2-8.7 39.2-10.2 33.4-3.8 63.7.8 96.5 6.6 21.7 3.8 42.2 9.4 61.1 20.5-56.3 29.4-122.8 38.7-181.7 17.1zm81.8 133.3c-.1 0-.1-.1-.2-.1h-.1c.3-.6.6-1.2 1-1.8-.3.6-.5 1.3-.7 1.9zm131.1 35.5c-26.2 11.5-55 15.2-85.7 9.6-9.8-1.8-19.6-4.7-28-9.7-9-6.7-14.8-14-15.4-26.7-.4-9.9 4.2-18.1 11-24.2 2.5-1.9 4.9-3.7 7.3-5.1 21.4-13.5 49.9-12.8 74.1-10.8 32.4 2.7 64.2 10.8 95.7 19.7-17.5 19.1-37.2 35.4-59 47.2zM107.9 326.8c4.8 3.5 10 6.4 15.4 8.8 2.5 1.3 5 2.5 7.7 3.5.6.2 1 .1 1.3-.2 1.8.6 3.6 1.1 5.4 1.6 3.7.9 7.5 1.4 11.2 1.6.3 0 .6.1.8.1.3 0 .6.1.9.1 62.8 6.1 108.3-46.2 131.8-99 1.4-3.1 2.7-6.3 4-9.5 3.9-7.3 7.6-14.8 10.7-22.7 9.5-23.8 16.9-48 21.9-73.2.6-3.2 1.2-6.6 1.9-10.2 15.9-13.4 28.9-30.4 30.8-51.3.9-10-1.7-16.3-6.3-17.5-.3-.3-.8-.5-1.4-.2h-.1c-3.5-.1-8 2.4-12.8 7.9-17 19.5-25.4 46.5-32 72.8l-4.5 2.7c-30.5 12.6-59.6-5.4-69.1-35.7-13-41.3 19.8-82.7 56-97.5 30.1-12.3 61.3-8.1 87.4 6.3 0 .4.3.9.7 1.2 34.4 24 54.3 58.1 53.8 100.4-.2 12.1-2.4 24.8-6.3 37.3-28.2-.1-56.3 4.3-81.6 16.9-.1.1-.2.1-.3.2-.3 0-.5.1-.7.3-.1.1-.2.1-.3.2-20.1 10.6-33.5 30.7-17.8 51.1 15.3 19.9 53.1 3.4 68.2-6.7 20.2-13.6 34.6-35.1 42.7-58.6 10.2.5 20.3 1.5 30.2 2.9-3 11.8-20.9 80.8-3 80.7 2.5.6 5.7-.1 10-2.5 20.7-12 33.4-41.8 46.5-60.6-.4.5 15.2-22 16-5.8.4 8.4-2.3 17.3-4.2 25.4-3.2 14.2-7.2 28.1-9 42.6 0 .3 0 .5.1.7 0 .4-.1.7-.1 1.1 0 .4.1.7.4 1-.1.6.1 1.2.8 1.5 3.2 1.5 5.9 1.2 7.9-.4 0 0 .1 0 .1-.1 1.4-1.1 2.6-2.9 3.4-5.1 6.6-18.3 7.1-39.1 11.3-58.1 2.7-5.6 6.8-12.1 11.8-16.9 4.1-3.6 9.1-6.2 15.1-6.7 1.9-.2 3.5 0 5 .3 1.3.4 2.5.9 3.8 1.7 8.3 6.2 4.1 24.4 2.2 32.7-7.3 30.8-28.6 69.9-14.6 101.7 40.9 92.9 170.5 32.3 178.3-50.6.6-6.6.4-14.4-.7-22.4 3.2-.8 6.2-1.7 8.8-2.4 35.3-9.2 69-24.1 105.6-28.8 35-4.5 66.2 6.6 79.8 40.9 3.4 8.6 4.9 17.3 4.6 25.6.1.2.3.5.3.8 1.1 12.8-3.7 24.8-11.3 35.2 26.6-28.4 12.2-85.8-28.2-102.5-34.7-14.4-82.7 3.3-115.5 14.2-14.6 4.9-29.5 9.9-44.7 13.6-4.3-24.6-17.9-49.7-46.1-45.6-20.8 3-33.6 32.8-16.3 47.8 14.3 12.3 41.2 6.7 60.8 1.6.8 9.6 0 19.3-1.3 27.5-9.7 60.6-78.6 106.4-135.4 80.2-.2-.3-.4-.5-.7-.6-1.8-.7-3.4-1.5-5-2.3-.8-.4-1.5-.8-2.3-1.3-4.5-2.7-8.3-5.6-11.7-8.6-31.8-31.9 3.4-92.1 7.1-131.3 1.3-13.7-4.7-27.2-18.4-31-7.1-2-13.6.6-19 5.2-5.3 3.8-9.6 9.8-13.1 16.1-.6-6-3.3-10.9-10.1-12-.7-.4-1.4-.6-2.3-.7-7.2-.4-12.4 9.1-16 14-11.9 16.3-21.6 34-34.6 49.5-4 4.8-12.2 12.3-17.8 11.6-2.1-4.4-2.8-9.3-2.6-14.5.2-3 .6-6 1-9 2.6-14.3 9.5-29.7 12.3-41.3.9-3.9 3.3-13.4-2.1-14.2-.2-.2-.4-.3-.8-.4-11.5-1.7-23.4-3-35.2-3.5 5.1-16.2 7.3-33.2 6.2-49.3C429 21.7 328.3-27.6 259.1 17c-31.7 20.5-47.5 64.5-33.2 99.6 11.3 27.8 43.1 39.7 70 28.5 0 0 .1 0 .1-.1.1 0 .2 0 .3-.1.6-.4 1.2-.7 1.8-1.1-2.4 10-4.7 19.8-7.1 29-5.5 20.9-11.9 42.1-20.2 62.5-.9 2-1.8 4.1-2.6 6.1-10.6 24.4-24.2 47.2-43 66.1-26.8 27.1-68.3 38.9-102.5 24-3.6-2-6.8-4.2-9.7-6.7 2.7-1.1 5.3-2.3 8-3.7 31.6-17.4 51.6-61.4 48.7-96.6-1.8-21.8-22.9-42.3-45.6-37.8-34.5 6.8-49.5 47.8-48.9 79.2.5 23.3 11.8 43.9 28.8 57.8-15.2 3.9-31.3 2.1-46.2-5.9-1.4-.4-2.8-1-3.4-1.4-5.6-3.1-11.6-6.2-16.7-10.3-.4-.3-.9-.5-1.3-.8 19.6 21 45.1 30.1 71.5 21.5zM345.1 62.5c.3-.3.4-.6.5-.9.6.3 1.2.7 1.8 1.4 3.8 5.1 1 15.4-.3 20.6-3.9 15.8-13.4 28.6-25.1 39.1 3.6-21.4 8.5-46.9 23.1-60.2zm38.2 150.4c-.2.2-.3.5-.4.8-15.9 11.3-36.8 18.2-54.9 11.8-21.4-13-7.9-38.2 8.5-51.2 4.7-2.4 9.5-4.4 14-6.1 20.7-8.1 43.2-11 65.8-10.8-7 20.9-18.7 40.9-33 55.5zm315.5 9.7c-24.2 0-36.9-21.4-19.6-41.9 11.9-14.1 34.6-1.5 44.3 7.8 7.7 7.4 11.3 18.1 12.7 29.3-12.3 2.9-24.8 4.8-37.4 4.8zM97.6 313.9c.1 0 .2-.1.2-.1.2.3.3.6.4.8-.1-.2-.4-.4-.6-.7zm-8.3-50c-2-29.6 7.6-62.8 37.7-74 .3-.1.5-.2.6-.4 14.4-.8 27.7 8.7 34.6 21.4 11.5 21.1.3 51.5-9.5 71-10.2 20.3-25.7 33.9-43 40.1-14.3-14.6-18.8-35.2-20.4-58.1zm378-146.1c.8 1.8 2.2 3.3 4 3.2.5 0 1-.1 1.4-.3.3-.1.5-.2.8-.4 1.6 0 3-.7 4.1-2.1 0 0 .1 0 .1-.1 2.6-2 2.7-5.3 1.9-8.2-.7-2.6-2.3-5.6-5.3-5.1-2.8-1.1-6.3-.5-8.3 1.8-2.7 3-1.6 8.1.8 10.9.3.1.4.1.5.3zM954 426.6c-38.9-14.7-86.9 5.2-115.5 31.8-1.7 1.6-3.4 3.3-5.1 5.1-7.5-11.8-14.7-23.5-19.4-35.1-1.2-3.4-2.4-6.8-3.4-10.3 5.9-8.8 11.3-17.9 15.8-27 3.1-6.3 7.7-15.4 4.7-22.5-8.2-19-29.4 18-31.4 23.2-4.2 10.7-2.9 21.5 1.2 31.9-18.9 23.5-51.7 59.3-71 61.7-.6 0-1.1-.1-1.6-.2-5.3-4.2-6.9-13.6-6.9-23.5.9-10 3.4-21.2 5.6-29.6 15.3-24.2 27.4-50.8 38.2-76.5 12.6-29.9 25.3-60 34.7-91 .8-2.5 6.9-24.8-3-16.7-9.4 7.7-15.5 20.8-21.4 31.1-10.7 19-20 38.9-28.9 58.8-14.2 31.6-26.7 63.1-32.8 97.3-.6 3.4-1.4 7.6-2 12.1-8.5 11.5-17.7 22.4-28 32.1-6.4 6-16 13.3-24.2 11.5-12.8-8.3-9.7-27.1-7.4-40.3 2.6-15.1 12.3-29.9 20.3-42.6.4-.6-.5-.9-.9-.8-3.1.4-5.9 1.3-8.9 2-.1 0-.1.1-.2.1-8.9 1.8-18.8.1-27.6-1.5-.4-8.6-3.2-16.2-10.1-21.3-2.4-1.8-8.3-4.2-12.8-4-.6-.3-1.3-.3-1.9.2-.1.1-.1.1-.1.2-2.5.8-4 2.9-3.5 7.2 1.8 14.4 11.3 17.3 23.9 20.2 1.7 3.3.1 7.9-1.5 15.8-3.1 15.5-11.8 32.3-18.5 46.3-4.3 8.9-9.2 17.4-15.5 25.1-4 4.8-7.5 6.5-10.6 6.2-10.4-5.8-8.1-29.8-7.6-38.6.9-15.3 5.7-30.4 10.1-45 .3-1.1-.5-2-1.6-2.1-1.1-.1-2.2-.1-3.3-.2-1.2-.1-1.7 1-1.5 2l-.1.1c-6.2 14.4-12.3 28.8-19.6 42.8-4.7 8.9-10.3 17.2-17.4 24.4-4.8 4.8-8.3 6.1-11 5.3-.1-.1-.2-.3-.3-.4-.8-1.8-1.5-3.7-2-5.5-1.4-9.5 2.5-23.9 3.7-29.4 1.6-7.8 4.9-14.9 8.4-22 1.7-2.6 3.1-5.3 4.1-8.1.6-1.1 1.1-2.3 1.7-3.4.5-1 .1-2-1-2.4-.8-.3-1.7-.6-2.5-.9-1.1-.4-1.8.4-1.9 1.3-.2.1-.5.3-.6.6-.9 1.6-2 3.5-3.1 5.5l-.3.6c-3.4 6.2-7.5 14.1-10.9 22.5-3.8 5.4-8 10.4-12.4 15.3-14.4 16.3-36.4 35.6-59.7 42.5h-.3c-16.4 3.4-32.4-5.4-37.2-21.7-6.2-21 4.5-45.7 18.1-61.6.1-.1.2-.3.2-.4 2.4-2 4.9-3.8 7.6-5.4 9.2-6.1 38.7-16.7 37 12.4-.1 2.1 3.1 2.1 3.3 0 1.9-33.1-31.8-21.6-49.5-9.3-.3.1-.6.2-.8.5-.1.1-.1.2-.2.3-1.6 1.2-3.1 2.4-4.4 3.5-21.5 19.3-35 55-13.6 79 9.9 11.1 24.6 10.7 38.6 6.3.7-.1 1.3-.2 1.9-.3.5-.1.8-.4 1-.7 10.3-3.6 20-9.2 27-13.7 14.2-9.1 28.2-21.2 39.5-35.2-3.8 12.7-4.6 25 2.2 32.4 14.8 16 38.2-29.9 47.9-50.9-1.3 5.9-2.4 11.8-3.4 17.7-2.2 13.3-4.3 30.1 3.7 41.9 14.8 21.9 37.4-25.3 41.2-33.2 6.4-13.3 19.2-38.3 19.8-58.7 7 1.3 14.2 1.9 21.2 2.1h1.4c-10.7 19.7-30.5 70.4-.4 80.1.2.1.5.1.7.1 6.7 2.1 15.1-.5 23.1-7.1 11.2-9.2 21.1-19.6 30.1-31-1.1 13 .1 26.9 9.9 33.3 11.7 7.6 29.3-6.6 37.8-13.3 16.3-12.8 31.5-29 44.6-46.5 6.8 14.1 18.3 27.2 27.6 37.8-24.2 26.9-44.8 71.7-25.5 104.6 5.5 9.4 20 14.7 30.3 11.6 18.3-5.4 27.6-21.7 32.8-39.2 8.6-28.9-12.6-54.8-32.7-77.3 7-7.3 14.7-14 22.9-19.6 17.5-12.1 38.8-18.2 59.8-20.4 11.8-1.2 23.6.4 34.9 3.7 17.3 5 41.9 26.3 24.3 41.4-2 3.1-4.5 6-7.3 8.3 31.2-15.5 8.8-43.8-16.6-53.4zm-198.8-75.7c1.6-4.2 14.1-38.1 25.6-64.7 5.8-11.2 12-22.1 18.6-32.7h.3c-1.4 17.6-12.1 37.6-18.2 53.5-14.5 37.7-28.6 77.6-50.4 111.9 0 .1-.1.1-.1.2 7.4-22.9 15.6-45.6 24.2-68.2zm-90.9 67.5c.1 0 .1-.1.1-.1-.1.2-.2.5-.4.7.2-.2.2-.4.3-.6zM631.2 405c0 .2-.3.4-.7.5-.1 0-.1 0-.2.1v.1h-1c-.8-.1-1.7-.2-2.5-.4-5-2-9.3-4.9-12.6-9.3-1.6-2.2-4.2-6.9-2.9-9.9.5-.6 1.1-1 2-1.4 2.8.2 6.3 1.7 7.9 2.7 5.3 3.3 7.1 7.1 9.2 12.8.1.3.1.6.1.9.6 1.1.9 2.4.7 3.9zm18.7 76.6s.1.1.1.2c-.1-.1-.1-.2-.1-.2zM821 370.8c4.9-2.1 8.9-1.4 7.3 6.3-2.1 10-8.2 19.4-13.5 28-1 1.6-2.9 4.3-5.4 7.7-2.7-14.2-.1-28.2 11.6-42zm16.2 102.8c21.5 33.4 40.3 67.1 6.7 101-.3.3-.4.6-.4.9-9.5 6.1-20.9 6.7-32.5-3-20.6-17.2-5.9-57.9 3.5-76.6 4.9-9.7 11.3-18.8 18.6-27 .4.4.8.9 1.1 1.3.9 1.1 1.9 2.3 3 3.4z" fill="#EDFFFF"/></svg>